<svg width="19" height="20" viewBox="0 0 19 20" fill="none" xmlns="http://www.w3.org/2000/svg">
<path d="M18.65 10.0726C18.65 9.43583 18.5884 8.77852 18.4857 8.16229H9.59143V11.798H14.6856C14.4802 12.9689 13.8023 13.9959 12.7958 14.6532L15.8359 17.0155C17.623 15.3516 18.65 12.9278 18.65 10.0726Z" fill="#4280EF"/>
<path d="M9.59308 19.2749C12.1402 19.2749 14.2764 18.4327 15.8375 16.9949L12.7975 14.6532C11.9553 15.2283 10.8666 15.557 9.59308 15.557C7.12816 15.557 5.05351 13.8932 4.2935 11.6747L1.17126 14.078C2.77346 17.2619 6.01894 19.2749 9.59308 19.2749Z" fill="#34A353"/>
<path d="M4.29267 11.6543C3.90239 10.4835 3.90239 9.20991 4.29267 8.03907L1.17044 5.61523C-0.164724 8.28556 -0.164724 11.4283 1.17044 14.0781L4.29267 11.6543Z" fill="#F6B704"/>
<path d="M9.59308 4.15691C10.9282 4.13637 12.2429 4.6499 13.2083 5.57424L15.8992 2.86283C14.1943 1.26063 11.9347 0.397908 9.59308 0.418449C6.01894 0.418449 2.77346 2.43147 1.17126 5.61532L4.2935 8.03916C5.05351 5.80019 7.12816 4.15691 9.59308 4.15691Z" fill="#E54335"/>
</svg>
