<svg width="234" height="268" viewBox="0 0 234 268" fill="none" xmlns="http://www.w3.org/2000/svg">
<path fill-rule="evenodd" clip-rule="evenodd" d="M118.775 268C181.598 268 232.526 218.507 232.526 157.455C232.526 96.4026 181.598 46.9099 118.775 46.9099C55.9515 46.9099 5.02332 96.4026 5.02332 157.455C5.02332 218.507 55.9515 268 118.775 268Z" fill="#F1EFDD"/>
<mask id="mask0_0_240" style="mask-type:luminance" maskUnits="userSpaceOnUse" x="5" y="46" width="228" height="222">
<path fill-rule="evenodd" clip-rule="evenodd" d="M118.775 268C181.598 268 232.526 218.507 232.526 157.455C232.526 96.4026 181.598 46.9099 118.775 46.9099C55.9515 46.9099 5.02332 96.4026 5.02332 157.455C5.02332 218.507 55.9515 268 118.775 268Z" fill="white"/>
</mask>
<g mask="url(#mask0_0_240)">
<path d="M201.254 239.31C197.602 242.859 192.276 246.926 187.482 249.662C187.102 249.884 186.721 250.106 186.341 250.328C182.004 252.694 176.982 255.208 175.612 253.877C173.177 251.511 180.406 240.493 186.645 233.173C186.949 232.803 187.178 232.507 187.482 232.212C188.547 231.028 189.536 229.919 190.526 228.958C197.906 221.786 200.569 223.782 203.537 226.666C206.2 229.254 208.178 231.768 202.852 237.609C202.547 237.905 202.243 238.201 201.939 238.571C201.787 238.866 201.482 239.088 201.254 239.31Z" fill="#FF7B65"/>
<path d="M211.602 225.926C210.461 225.261 209.167 224.965 207.95 224.965C208.558 223.93 208.939 222.673 208.939 221.416C207.645 221.416 206.428 221.712 205.363 222.303C205.363 221.12 205.058 219.937 204.374 218.828C201.787 220.233 200.341 222.969 200.569 225.704C200.645 226.592 201.482 228.588 201.558 228.736C201.634 228.81 203.689 229.623 204.678 229.697C207.341 229.845 210.156 228.514 211.602 225.926Z" fill="#22A45D"/>
<path d="M202.015 238.571L197.145 233.838C196.917 233.616 196.917 233.173 197.145 232.951C197.373 232.729 197.83 232.729 198.058 232.951L202.852 237.609C202.624 237.979 202.319 238.275 202.015 238.571Z" fill="#F2F2F2"/>
<path d="M187.482 249.662C187.102 249.884 186.721 250.106 186.341 250.328L183.297 247.37C183.069 247.148 183.069 246.704 183.297 246.483C183.525 246.261 183.982 246.261 184.21 246.483L187.482 249.662Z" fill="#F2F2F2"/>
<path d="M193.797 239.31C193.569 239.532 193.112 239.532 192.884 239.31L186.645 233.247C186.949 232.877 187.178 232.581 187.482 232.285L193.873 238.497C194.102 238.645 194.102 239.014 193.797 239.31Z" fill="#F2F2F2"/>
<path d="M121.286 104.216V114.642C144.34 114.642 163.058 132.832 163.058 155.015H173.786C173.558 127.064 150.047 104.216 121.286 104.216Z" fill="#F8B64C"/>
<path d="M168.764 159.895C168.764 188.067 145.253 210.694 116.492 210.694C87.5026 210.694 64.2197 187.846 64.2197 159.895C64.2197 131.723 87.7309 109.096 116.492 109.096V119.522C93.4375 119.522 74.9481 137.712 74.9481 159.895C74.9481 182.3 93.6657 200.49 116.492 200.49C139.547 200.49 158.264 182.3 158.264 159.895H168.764Z" fill="#F8B64C"/>
<path d="M162.83 155.015C162.83 132.61 144.112 114.642 121.057 114.642V155.015H162.83Z" fill="#FFD15C"/>
<path d="M158.036 159.895C158.036 182.3 139.318 200.49 116.264 200.49C93.2092 200.49 74.7198 182.3 74.7198 159.895C74.7198 137.49 93.4375 119.522 116.264 119.522V159.895H158.036Z" fill="#FFD15C"/>
<path d="M138.862 185.849C143.022 185.849 146.395 182.572 146.395 178.529C146.395 174.486 143.022 171.208 138.862 171.208C134.702 171.208 131.329 174.486 131.329 178.529C131.329 182.572 134.702 185.849 138.862 185.849Z" fill="#FF7B65"/>
<path d="M138.862 174.979C139.618 174.979 140.232 174.384 140.232 173.649C140.232 172.913 139.618 172.318 138.862 172.318C138.106 172.318 137.492 172.913 137.492 173.649C137.492 174.384 138.106 174.979 138.862 174.979Z" fill="#E76A56"/>
<path d="M138.862 184.962C139.618 184.962 140.232 184.366 140.232 183.631C140.232 182.896 139.618 182.3 138.862 182.3C138.106 182.3 137.492 182.896 137.492 183.631C137.492 184.366 138.106 184.962 138.862 184.962Z" fill="#E76A56"/>
<path d="M143.453 175.933C143.987 175.414 143.987 174.571 143.452 174.051C142.917 173.531 142.05 173.532 141.515 174.051C140.981 174.571 140.981 175.414 141.516 175.934C142.051 176.453 142.918 176.453 143.453 175.933Z" fill="#E76A56"/>
<path d="M136.109 183.025C136.643 182.505 136.643 181.662 136.109 181.142C135.574 180.623 134.707 180.623 134.172 181.142C133.637 181.662 133.637 182.505 134.172 183.025C134.707 183.544 135.574 183.544 136.109 183.025Z" fill="#E76A56"/>
<path d="M144.112 179.86C144.868 179.86 145.482 179.264 145.482 178.529C145.482 177.794 144.868 177.198 144.112 177.198C143.356 177.198 142.742 177.794 142.742 178.529C142.742 179.264 143.356 179.86 144.112 179.86Z" fill="#E76A56"/>
<path d="M133.612 179.86C134.368 179.86 134.981 179.264 134.981 178.529C134.981 177.794 134.368 177.198 133.612 177.198C132.855 177.198 132.242 177.794 132.242 178.529C132.242 179.264 132.855 179.86 133.612 179.86Z" fill="#E76A56"/>
<path d="M143.425 183.04C143.96 182.52 143.96 181.677 143.425 181.157C142.89 180.638 142.023 180.638 141.488 181.157C140.953 181.677 140.953 182.52 141.488 183.04C142.023 183.56 142.89 183.56 143.425 183.04Z" fill="#E76A56"/>
<path d="M136.136 175.912C136.671 175.392 136.671 174.55 136.137 174.03C135.602 173.51 134.735 173.51 134.2 174.03C133.665 174.549 133.665 175.392 134.199 175.912C134.734 176.432 135.601 176.432 136.136 175.912Z" fill="#E76A56"/>
<path d="M90.9266 163.666C95.0868 163.666 98.4593 160.389 98.4593 156.346C98.4593 152.303 95.0868 149.025 90.9266 149.025C86.7664 149.025 83.3939 152.303 83.3939 156.346C83.3939 160.389 86.7664 163.666 90.9266 163.666Z" fill="#FF7B65"/>
<path d="M90.9266 152.797C91.683 152.797 92.2962 152.201 92.2962 151.466C92.2962 150.73 91.683 150.135 90.9266 150.135C90.1702 150.135 89.557 150.73 89.557 151.466C89.557 152.201 90.1702 152.797 90.9266 152.797Z" fill="#E76A56"/>
<path d="M90.9266 162.779C91.683 162.779 92.2962 162.183 92.2962 161.448C92.2962 160.713 91.683 160.117 90.9266 160.117C90.1702 160.117 89.557 160.713 89.557 161.448C89.557 162.183 90.1702 162.779 90.9266 162.779Z" fill="#E76A56"/>
<path d="M95.5172 153.75C96.052 153.231 96.0519 152.388 95.517 151.868C94.982 151.348 94.1149 151.349 93.5801 151.868C93.0453 152.388 93.0455 153.231 93.5804 153.751C94.1153 154.27 94.9825 154.27 95.5172 153.75Z" fill="#E76A56"/>
<path d="M88.1732 160.842C88.7081 160.322 88.7081 159.479 88.1732 158.959C87.6384 158.44 86.7712 158.44 86.2364 158.959C85.7015 159.479 85.7015 160.322 86.2364 160.842C86.7712 161.362 87.6384 161.362 88.1732 160.842Z" fill="#E76A56"/>
<path d="M96.1767 157.677C96.9331 157.677 97.5463 157.081 97.5463 156.346C97.5463 155.611 96.9331 155.015 96.1767 155.015C95.4203 155.015 94.8071 155.611 94.8071 156.346C94.8071 157.081 95.4203 157.677 96.1767 157.677Z" fill="#E76A56"/>
<path d="M85.6766 157.677C86.433 157.677 87.0462 157.081 87.0462 156.346C87.0462 155.611 86.433 155.015 85.6766 155.015C84.9202 155.015 84.307 155.611 84.307 156.346C84.307 157.081 84.9202 157.677 85.6766 157.677Z" fill="#E76A56"/>
<path d="M95.4896 160.857C96.0245 160.337 96.0245 159.494 95.4896 158.975C94.9548 158.455 94.0876 158.455 93.5528 158.975C93.0179 159.494 93.0179 160.337 93.5528 160.857C94.0876 161.377 94.9548 161.377 95.4896 160.857Z" fill="#E76A56"/>
<path d="M88.2011 153.729C88.736 153.209 88.7361 152.367 88.2013 151.847C87.6666 151.327 86.7994 151.327 86.2645 151.847C85.7295 152.366 85.7294 153.209 86.2642 153.729C86.799 154.249 87.6661 154.249 88.2011 153.729Z" fill="#E76A56"/>
<path fill-rule="evenodd" clip-rule="evenodd" d="M105.764 131.501C105.992 131.723 106.449 131.945 106.905 131.945C107.362 131.945 108.046 131.723 108.959 131.057C110.329 132.166 111.47 132.166 112.155 131.501C112.84 130.835 112.84 129.726 111.699 128.395C112.84 127.064 112.84 125.955 112.155 125.29C111.47 124.624 110.329 124.624 108.959 125.733C107.59 124.624 106.449 124.624 105.764 125.29C105.079 125.955 105.079 127.064 106.22 128.395C105.079 129.726 105.079 130.835 105.764 131.501ZM106.22 125.955C106.449 125.733 106.677 125.733 106.905 125.733C107.362 125.733 107.818 125.955 108.503 126.399L108.731 126.842L108.959 126.621C109.872 125.733 110.786 125.511 111.242 125.955C111.699 126.177 111.47 127.064 110.557 128.173L110.329 128.395L110.557 128.617C111.47 129.504 111.699 130.392 111.242 130.835C111.014 131.279 110.101 131.057 108.959 130.17L108.731 129.948L108.503 130.17C107.59 131.057 106.677 131.279 106.22 130.835C105.764 130.614 105.992 129.726 106.905 128.617L107.133 128.395L106.905 128.173C105.992 127.286 105.764 126.399 106.22 125.955Z" fill="#FF7B65"/>
<path d="M93.4374 138.599C94.572 138.599 95.4918 137.706 95.4918 136.603C95.4918 135.5 94.572 134.607 93.4374 134.607C92.3028 134.607 91.3831 135.5 91.3831 136.603C91.3831 137.706 92.3028 138.599 93.4374 138.599Z" fill="#40596B"/>
<path d="M94.1222 136.603C94.5004 136.603 94.807 136.305 94.807 135.937C94.807 135.57 94.5004 135.272 94.1222 135.272C93.744 135.272 93.4374 135.57 93.4374 135.937C93.4374 136.305 93.744 136.603 94.1222 136.603Z" fill="white"/>
<path d="M106.677 176.976C107.811 176.976 108.731 176.082 108.731 174.979C108.731 173.877 107.811 172.983 106.677 172.983C105.542 172.983 104.622 173.877 104.622 174.979C104.622 176.082 105.542 176.976 106.677 176.976Z" fill="#40596B"/>
<path d="M107.133 174.979C107.511 174.979 107.818 174.682 107.818 174.314C107.818 173.946 107.511 173.649 107.133 173.649C106.755 173.649 106.448 173.946 106.448 174.314C106.448 174.682 106.755 174.979 107.133 174.979Z" fill="white"/>
<path d="M150.503 166.55C151.638 166.55 152.558 165.656 152.558 164.554C152.558 163.451 151.638 162.557 150.503 162.557C149.369 162.557 148.449 163.451 148.449 164.554C148.449 165.656 149.369 166.55 150.503 166.55Z" fill="#40596B"/>
<path d="M151.188 164.332C151.566 164.332 151.873 164.034 151.873 163.666C151.873 163.299 151.566 163.001 151.188 163.001C150.81 163.001 150.503 163.299 150.503 163.666C150.503 164.034 150.81 164.332 151.188 164.332Z" fill="white"/>
<path d="M150.732 135.272C151.866 135.272 152.786 134.378 152.786 133.276C152.786 132.173 151.866 131.279 150.732 131.279C149.597 131.279 148.677 132.173 148.677 133.276C148.677 134.378 149.597 135.272 150.732 135.272Z" fill="#40596B"/>
<path d="M151.416 133.276C151.795 133.276 152.101 132.978 152.101 132.61C152.101 132.243 151.795 131.945 151.416 131.945C151.038 131.945 150.732 132.243 150.732 132.61C150.732 132.978 151.038 133.276 151.416 133.276Z" fill="white"/>
<path d="M127.221 188.067C128.355 188.067 129.275 187.174 129.275 186.071C129.275 184.968 128.355 184.074 127.221 184.074C126.086 184.074 125.166 184.968 125.166 186.071C125.166 187.174 126.086 188.067 127.221 188.067Z" fill="#40596B"/>
<path d="M127.677 185.849C128.055 185.849 128.362 185.551 128.362 185.184C128.362 184.816 128.055 184.518 127.677 184.518C127.299 184.518 126.992 184.816 126.992 185.184C126.992 185.551 127.299 185.849 127.677 185.849Z" fill="white"/>
<path d="M106.677 147.694C108.568 147.694 110.101 146.205 110.101 144.367C110.101 142.529 108.568 141.04 106.677 141.04C104.786 141.04 103.253 142.529 103.253 144.367C103.253 146.205 104.786 147.694 106.677 147.694Z" fill="white"/>
<path d="M119.003 173.427C120.373 172.318 120.601 170.321 119.459 168.768C118.318 167.437 116.264 167.215 114.666 168.325C114.209 168.768 114.438 169.656 114.894 170.543L112.383 172.539L114.209 174.758L116.72 172.761C117.633 173.427 118.546 173.87 119.003 173.427Z" fill="#22A45D"/>
<path fill-rule="evenodd" clip-rule="evenodd" d="M86.5896 178.529C86.5896 176.089 88.644 174.092 91.1549 174.092C93.6658 174.092 95.7201 176.089 95.7201 178.529C95.7201 180.969 93.6658 182.965 91.1549 182.965C88.644 182.965 86.5896 180.969 86.5896 178.529ZM88.4157 178.751C88.4157 180.082 89.557 181.413 91.1549 181.413C92.7527 181.413 93.894 180.082 93.894 178.751C93.894 177.42 92.7527 176.089 91.1549 176.089C89.7853 176.089 88.4157 177.198 88.4157 178.751Z" fill="#FF7B65"/>
<path d="M137.492 140.374C135.438 138.599 134.981 135.716 136.808 133.719C138.634 131.723 141.601 131.279 143.655 133.054C144.34 133.719 144.112 135.05 143.427 136.381L147.079 139.265L144.34 142.371L140.688 139.487C139.547 140.374 138.177 141.04 137.492 140.374Z" fill="#22A45D"/>
<path fill-rule="evenodd" clip-rule="evenodd" d="M159.862 144.811C159.862 147.251 157.808 149.247 155.297 149.247C152.786 149.247 150.732 147.251 150.732 144.811C150.732 142.371 152.786 140.374 155.297 140.374C157.808 140.374 159.862 142.371 159.862 144.811ZM158.036 144.589C158.036 143.258 156.895 141.927 155.297 141.927C153.699 141.927 152.558 143.036 152.558 144.589C152.558 145.92 153.699 147.251 155.297 147.251C156.666 147.251 158.036 146.142 158.036 144.589Z" fill="#E76A56"/>
<path d="M126.764 152.131C126.764 151.244 127.677 150.578 128.362 150.8C131.329 151.022 133.84 148.804 134.068 145.92C134.068 145.033 134.981 144.367 135.666 144.589C136.579 144.589 137.264 145.476 137.036 146.142C136.807 150.8 132.699 154.128 127.905 153.906C127.22 153.684 126.536 153.018 126.764 152.131Z" fill="#5DBB88"/>
<path d="M107.818 186.958C108.731 186.958 109.416 187.624 109.416 188.289C109.644 191.173 112.155 193.391 115.122 193.17C116.036 193.17 116.72 193.835 116.72 194.5C116.72 195.388 116.036 196.053 115.351 196.053C110.557 196.497 106.448 192.948 106.22 188.511C106.22 187.846 106.905 186.958 107.818 186.958Z" fill="#5DBB88"/>
<path d="M129.275 132.388C132.3 132.388 134.753 130.005 134.753 127.064C134.753 124.124 132.3 121.74 129.275 121.74C126.249 121.74 123.797 124.124 123.797 127.064C123.797 130.005 126.249 132.388 129.275 132.388Z" fill="#F8B64C"/>
</g>
<path d="M201.254 239.31C197.602 242.859 192.275 246.926 187.482 249.662C187.102 249.884 186.721 250.106 186.341 250.328C182.004 252.694 176.982 255.208 175.612 253.877C173.177 251.511 180.406 240.493 186.645 233.173C186.949 232.803 187.178 232.507 187.482 232.212C188.547 231.028 189.536 229.919 190.525 228.958C197.906 221.786 200.569 223.782 203.536 226.666C206.2 229.254 208.178 231.768 202.852 237.609C202.547 237.905 202.243 238.201 201.939 238.571C201.786 238.866 201.482 239.088 201.254 239.31Z" fill="#FF7B65"/>
<path d="M211.602 225.926C210.46 225.261 209.167 224.965 207.95 224.965C208.558 223.93 208.939 222.673 208.939 221.416C207.645 221.416 206.428 221.712 205.363 222.303C205.363 221.12 205.058 219.937 204.373 218.828C201.786 220.233 200.341 222.969 200.569 225.704C200.645 226.592 201.482 228.588 201.558 228.736C201.634 228.81 203.689 229.623 204.678 229.697C207.341 229.845 210.156 228.514 211.602 225.926Z" fill="#22A45D"/>
<path d="M202.015 238.571L197.145 233.838C196.917 233.616 196.917 233.173 197.145 232.951C197.373 232.729 197.83 232.729 198.058 232.951L202.852 237.609C202.623 237.979 202.319 238.275 202.015 238.571Z" fill="#F2F2F2"/>
<path d="M187.482 249.662C187.102 249.884 186.721 250.106 186.341 250.328L183.297 247.37C183.069 247.148 183.069 246.704 183.297 246.483C183.525 246.261 183.982 246.261 184.21 246.483L187.482 249.662Z" fill="#F2F2F2"/>
<path d="M193.797 239.31C193.569 239.532 193.112 239.532 192.884 239.31L186.645 233.247C186.949 232.877 187.178 232.581 187.482 232.285L193.873 238.497C194.102 238.645 194.102 239.014 193.797 239.31Z" fill="#F2F2F2"/>
<path d="M40.3317 58.9659C46.7231 52.7547 46.7231 42.7724 40.3317 36.5611L17.2771 58.9659C23.6685 65.1771 34.0164 65.1771 40.3317 58.9659Z" fill="#FF7058"/>
<path d="M42.8426 34.195C50.6035 41.6632 50.6035 53.8638 42.8426 61.406C35.0816 68.9483 22.5271 68.9483 14.8422 61.406L13.7009 62.5152C22.0706 70.6489 35.6142 70.6489 43.9839 62.5152C52.3536 54.3814 52.3536 41.2196 43.9839 33.0858L42.8426 34.195Z" fill="#22A45D"/>
<rect width="3.45103" height="0.0750232" transform="matrix(0.717142 -0.696927 0.717142 0.696927 14.8184 61.4302)" fill="#F2F2F2"/>
<rect width="3.45103" height="0.0750232" transform="matrix(0.717142 -0.696927 0.717142 0.696927 40.3484 36.5713)" fill="#F2F2F2"/>
<path d="M42.8426 61.406C50.6036 53.8638 50.6036 41.6632 42.8426 34.1949L40.3317 36.6351C46.7231 42.8463 46.7231 52.8286 40.3317 59.0399C33.9403 65.2511 23.6685 65.2511 17.2771 59.0399L14.8423 61.406C22.5272 68.9482 35.0817 68.9482 42.8426 61.406Z" fill="#F2F2F2"/>
<path d="M38.1736 44.2667C38.6193 43.8336 38.6193 43.1313 38.1736 42.6982C37.7279 42.265 37.0053 42.265 36.5596 42.6982C36.1139 43.1313 36.1139 43.8336 36.5596 44.2667C37.0053 44.6999 37.7279 44.6999 38.1736 44.2667Z" fill="white"/>
<path d="M31.7145 50.5552C32.1602 50.1221 32.1602 49.4198 31.7145 48.9867C31.2688 48.5535 30.5462 48.5535 30.1005 48.9867C29.6548 49.4198 29.6548 50.1221 30.1005 50.5552C30.5462 50.9884 31.2688 50.9884 31.7145 50.5552Z" fill="white"/>
<path d="M25.2555 56.8437C25.7013 56.4106 25.7013 55.7083 25.2555 55.2751C24.8098 54.842 24.0872 54.842 23.6415 55.2751C23.1958 55.7083 23.1958 56.4106 23.6415 56.8437C24.0872 57.2768 24.8098 57.2768 25.2555 56.8437Z" fill="white"/>
<path d="M37.8666 50.2738C38.3123 49.8406 38.3123 49.1384 37.8666 48.7052C37.4209 48.2721 36.6983 48.2721 36.2526 48.7052C35.8069 49.1384 35.8069 49.8406 36.2526 50.2738C36.6983 50.7069 37.4209 50.7069 37.8666 50.2738Z" fill="white"/>
<path d="M31.4076 56.5623C31.8534 56.1291 31.8534 55.4269 31.4076 54.9937C30.9619 54.5606 30.2393 54.5606 29.7936 54.9937C29.3479 55.4269 29.3479 56.1291 29.7936 56.5623C30.2393 56.9954 30.9619 56.9954 31.4076 56.5623Z" fill="white"/>
<path d="M37.5596 56.2809C38.0053 55.8478 38.0053 55.1455 37.5596 54.7124C37.1139 54.2792 36.3913 54.2792 35.9456 54.7124C35.4999 55.1455 35.4999 55.8478 35.9456 56.2809C36.3913 56.7141 37.1139 56.7141 37.5596 56.2809Z" fill="white"/>
<path d="M156.898 58.3004C157.126 57.7089 158.116 56.4518 158.724 56.5258C161.996 56.6737 172.496 56.8216 177.062 51.9413C177.062 51.9413 179.953 49.6491 180.866 44.0294C180.866 44.0294 180.409 39.371 180.029 37.6703C179.953 37.3006 180.029 36.9308 180.257 36.6351C180.562 36.1914 181.17 36.0435 181.703 36.1914L182.768 36.4132C183.529 36.6351 183.986 37.2266 184.062 37.966L184.214 42.1808C184.214 42.1808 190.529 44.8428 188.094 53.7159C188.094 53.7159 184.518 63.6983 170.138 65.2511C170.138 65.2511 163.214 66.5081 156.974 60.5187C156.67 60.149 156.746 58.818 156.898 58.3004Z" fill="#22A45D"/>
<path d="M180.79 67.0997C180.79 67.0997 174.779 70.7968 166.714 67.2475C165.801 66.8778 165.801 65.0293 165.801 65.0293C168.311 65.4729 170.061 65.1771 170.061 65.1771C184.518 63.6983 188.094 53.7159 188.094 53.7159C190.529 44.8428 184.214 42.1808 184.214 42.1808C184.214 42.1808 183.377 41.2935 181.399 40.628C181.018 39.8886 180.562 39.1491 180.257 38.5576C180.181 38.1879 180.181 37.8921 180.105 37.6703C180.029 37.3006 180.105 36.9308 180.333 36.6351C180.638 36.1914 181.246 36.0435 181.779 36.1914L182.768 36.4132C183.301 36.5611 183.681 36.9308 183.909 37.3745C183.909 37.3745 183.909 37.4484 183.986 37.4484L185.431 40.7019C185.431 40.7019 192.279 40.9977 193.268 50.0927C193.268 50.0927 193.649 60.5927 180.79 67.0997Z" fill="#30AC68"/>
<path d="M183.909 37.3745C183.757 36.9308 183.301 36.5611 182.768 36.4132L181.779 36.1175C181.246 35.9696 180.714 36.1914 180.333 36.5611C180.105 36.8569 180.029 37.2266 180.105 37.5963C180.181 37.8182 180.181 38.1879 180.257 38.4836C180.105 38.3358 179.953 38.1139 179.877 37.8921C179.648 37.5963 179.648 37.2266 179.725 36.8569C179.877 36.3393 180.333 35.9696 180.866 35.8956L181.931 35.8217C182.692 35.7478 183.377 36.1914 183.681 36.8569L183.909 37.3745Z" fill="#136D3C"/>
<path d="M184.214 42.1808C184.214 42.1808 183.377 41.2935 181.399 40.628C182.235 42.1069 182.92 43.5857 182.92 43.5857C184.138 49.1315 182.312 52.311 182.312 52.311C179.801 58.4483 169.985 61.9976 166.866 62.9588C166.333 63.1067 165.953 63.6243 165.877 64.2159V65.1032C168.387 65.5468 170.138 65.2511 170.138 65.2511C184.518 63.6983 188.094 53.7159 188.094 53.7159C190.529 44.8428 184.214 42.1808 184.214 42.1808Z" fill="#5DBB88"/>
<rect width="3.60108" height="9.22776" transform="matrix(0.717142 -0.696927 0.717142 0.696927 24.4106 216.114)" fill="#EEF8F2"/>
<path d="M28.6902 215.208L27.0163 213.581L24.4293 216.095L26.1033 217.722C26.712 217.5 27.2446 217.13 27.7011 216.761C28.1576 216.317 28.462 215.799 28.6902 215.208Z" fill="#DBEDE2"/>
<path d="M26.788 215.873C23.6684 218.905 10.7335 215.282 4.34207 209.071C-2.0493 202.859 -0.603636 197.609 3.65728 193.395C6.54862 190.659 9.89649 189.106 13.6248 190.215C14.3857 190.437 15.2226 190.733 15.9835 191.176C17.2009 191.842 18.4944 192.803 19.7879 194.06C20.3966 194.652 21.0814 195.317 21.614 196.13C21.9945 196.648 22.451 197.166 22.7553 197.757C23.8206 199.31 24.7336 201.011 25.4184 202.711C25.6467 203.229 25.8749 203.673 26.0271 204.19C26.788 206.113 27.3206 207.961 27.5489 209.662C27.625 210.18 27.701 210.697 27.701 211.215C28.0054 213.211 27.625 214.986 26.788 215.873Z" fill="#FF7B65"/>
<path d="M33.1794 222.085C34.0925 222.38 35.0816 222.159 35.7664 221.493C36.7555 220.532 36.7555 218.905 35.7664 217.944C34.7773 216.982 33.1033 216.982 32.1142 217.944C31.4294 218.609 31.2011 219.644 31.5055 220.458C30.5924 220.162 29.6033 220.384 28.9185 221.049C27.9294 222.011 27.9294 223.637 28.9185 224.599C29.9076 225.56 31.5816 225.56 32.5707 224.599C33.2555 223.933 33.4838 222.898 33.1794 222.085Z" fill="#EEF8F2"/>
<path d="M27.8532 211.141C26.788 211.511 25.7989 212.102 24.8858 212.99C24.5815 213.285 24.0489 213.285 23.7445 212.99C23.4401 212.694 23.4401 212.176 23.7445 211.88C24.8858 210.771 26.1793 210.032 27.625 209.588C27.7011 210.106 27.7772 210.623 27.8532 211.141Z" fill="#E76A56"/>
<path d="M26.1033 204.116C24.0489 204.116 21.9184 204.856 20.3967 206.409C20.0923 206.704 19.5597 206.704 19.2554 206.409C18.951 206.113 18.951 205.669 19.2554 205.373C21.0054 203.673 23.2119 202.785 25.4946 202.637C25.7228 203.155 25.9511 203.599 26.1033 204.116Z" fill="#E76A56"/>
<path d="M22.8314 197.683C20.3966 197.314 17.8096 198.053 15.9074 199.902C15.6031 200.197 15.0705 200.197 14.7661 199.902C14.4618 199.606 14.4618 199.088 14.7661 198.792C16.6683 196.944 19.1792 196.057 21.614 196.057C22.0705 196.574 22.451 197.166 22.8314 197.683Z" fill="#E76A56"/>
<path d="M15.9836 191.176C14.3096 191.398 12.6357 192.138 11.3422 193.395C11.0378 193.69 10.5813 193.69 10.277 193.395C9.97262 193.099 9.97262 192.655 10.277 192.359C11.2661 191.398 12.4074 190.659 13.7009 190.215C14.3857 190.363 15.2227 190.733 15.9836 191.176Z" fill="#E76A56"/>
<path d="M220.115 84.7992L223.562 81.4492C228.043 85.9159 230.801 91.9461 230.916 98.6462H205.866L220.115 84.7992Z" fill="#FF7B65"/>
<path d="M205.866 98.6462L220.115 84.7992C223.677 88.3726 225.86 93.2861 225.975 98.6462H205.866Z" fill="#FFD15C"/>
<path d="M224.252 96.9712C225.056 96.3012 225.171 95.0728 224.481 94.2911C223.792 93.5094 222.528 93.3978 221.724 94.0678C221.379 94.2911 221.494 94.8495 221.838 95.4078L220.345 96.6362L221.379 97.8645L222.873 96.6362C223.447 96.9712 224.022 97.1945 224.252 96.9712Z" fill="#22A45D"/>
<path fill-rule="evenodd" clip-rule="evenodd" d="M211.612 95.9662C211.612 94.9611 212.416 94.1794 213.45 94.1794C214.484 94.1794 215.289 94.9611 215.289 95.9662C215.289 96.9712 214.484 97.7529 213.45 97.7529C212.416 97.7529 211.612 96.9712 211.612 95.9662ZM212.301 96.0778C212.301 96.7478 212.761 97.1945 213.45 97.1945C214.025 97.1945 214.599 96.6362 214.599 96.0778C214.599 95.5195 214.14 94.9611 213.45 94.9611C212.876 94.9611 212.301 95.4078 212.301 96.0778Z" fill="#FF7B65"/>
<path fill-rule="evenodd" clip-rule="evenodd" d="M217.357 91.0527C217.357 90.0477 218.161 89.266 219.196 89.266C220.23 89.266 221.034 90.0477 221.034 91.0527C221.034 92.0577 220.23 92.8394 219.196 92.8394C218.161 92.8394 217.357 92.0577 217.357 91.0527ZM218.047 91.1644C218.047 91.7227 218.506 92.2811 219.196 92.2811C219.885 92.2811 220.345 91.7227 220.345 91.1644C220.345 90.4944 219.885 90.0477 219.196 90.0477C218.506 90.0477 218.047 90.4944 218.047 91.1644Z" fill="#E76A56"/>
<path d="M115.07 10.4969L100.822 24.3439V0C107.716 0.111669 113.921 2.79173 118.517 7.14683L115.07 10.4969Z" fill="#FF7B65"/>
<path d="M115.07 10.4969L100.822 24.3439V4.80179C106.337 4.91346 111.278 7.03517 115.07 10.4969Z" fill="#FFD15C"/>
<path fill-rule="evenodd" clip-rule="evenodd" d="M108.406 10.6086C108.406 9.60355 109.21 8.82187 110.244 8.82187C111.278 8.82187 112.083 9.60355 112.083 10.6086C112.083 11.6136 111.278 12.3953 110.244 12.3953C109.21 12.3953 108.406 11.6136 108.406 10.6086ZM109.095 10.6086C109.095 11.2786 109.555 11.7253 110.244 11.7253C110.933 11.7253 111.393 11.2786 111.393 10.6086C111.393 10.0502 110.933 9.49187 110.244 9.49187C109.555 9.49187 109.095 9.93855 109.095 10.6086Z" fill="#FF7058"/>
<path d="M104.384 17.8671C105.589 17.8671 106.567 16.9172 106.567 15.7454C106.567 14.5736 105.589 13.6237 104.384 13.6237C103.178 13.6237 102.2 14.5736 102.2 15.7454C102.2 16.9172 103.178 17.8671 104.384 17.8671Z" fill="#22A45D"/>
<path d="M105.992 7.59352C105.877 7.92853 105.533 8.15187 105.188 8.0402C104.039 7.70519 102.775 8.37521 102.545 9.4919C102.43 9.82691 102.085 10.0502 101.741 9.93858C101.396 9.82691 101.166 9.4919 101.281 9.15689C101.856 7.37018 103.694 6.36516 105.533 6.81184C105.877 6.92351 106.107 7.25851 105.992 7.59352Z" fill="#5DBB88"/>
<path d="M64.5012 53.064C65.4531 53.064 66.2248 52.3141 66.2248 51.389C66.2248 50.4639 65.4531 49.714 64.5012 49.714C63.5493 49.714 62.7776 50.4639 62.7776 51.389C62.7776 52.3141 63.5493 53.064 64.5012 53.064Z" fill="#F8B64C"/>
<path d="M72.8894 42.0088C72.8894 40.8921 71.9702 40.1104 70.936 40.1104C69.7869 40.1104 68.9825 41.0038 68.9825 42.0088C68.9825 42.3438 69.4422 42.5671 70.1316 42.6788V44.5772H71.8552V42.6788C72.4298 42.6788 72.8894 42.4555 72.8894 42.0088Z" fill="#22A45D"/>
<path d="M207.265 199.152C207.954 198.482 207.954 197.366 207.265 196.696C206.575 196.026 205.426 196.026 204.737 196.696C204.507 196.919 204.622 197.366 204.966 197.924L203.702 199.152L204.851 200.157L206.115 198.929C206.575 199.264 207.035 199.376 207.265 199.152Z" fill="#22A45D"/>
<path fill-rule="evenodd" clip-rule="evenodd" d="M109.191 77.3898C109.191 76.3848 109.996 75.6031 111.03 75.6031C112.064 75.6031 112.868 76.3848 112.868 77.3898C112.868 78.3949 112.064 79.1765 111.03 79.1765C109.996 79.1765 109.191 78.3949 109.191 77.3898ZM109.881 77.3898C109.881 78.0598 110.34 78.5065 111.03 78.5065C111.604 78.5065 112.179 78.0598 112.179 77.3898C112.179 76.7198 111.719 76.2731 111.03 76.2731C110.34 76.2731 109.881 76.7198 109.881 77.3898Z" fill="#FF7058"/>
<path fill-rule="evenodd" clip-rule="evenodd" d="M62.7776 238.474C62.7776 237.581 63.5819 236.799 64.5012 236.799C65.4205 236.799 66.1099 237.581 66.2248 238.474C66.2248 239.368 65.4205 240.149 64.5012 240.149C63.5819 240.149 62.7776 239.368 62.7776 238.474ZM63.467 238.474C63.467 239.033 63.9267 239.479 64.5012 239.479C65.0758 239.479 65.5354 239.033 65.5354 238.474C65.5354 237.916 65.0758 237.469 64.5012 237.469C63.9267 237.469 63.467 237.916 63.467 238.474Z" fill="#FF7058"/>
<path d="M72.5696 207.768C73.7754 207.768 74.7529 206.818 74.7529 205.647C74.7529 204.475 73.7754 203.525 72.5696 203.525C71.3638 203.525 70.3864 204.475 70.3864 205.647C70.3864 206.818 71.3638 207.768 72.5696 207.768Z" fill="#F8B64C"/>
<path d="M50.5041 101.29C51.7098 101.29 52.6873 100.34 52.6873 99.1683C52.6873 97.9966 51.7098 97.0466 50.5041 97.0466C49.2983 97.0466 48.3208 97.9966 48.3208 99.1683C48.3208 100.34 49.2983 101.29 50.5041 101.29Z" fill="#F8B64C"/>
<path d="M132.722 90.3103C132.378 90.3103 132.148 89.9753 132.148 89.6403C132.378 88.5236 131.573 87.4069 130.309 87.1835C129.965 87.1835 129.735 86.8485 129.735 86.5135C129.735 86.1785 130.08 85.9552 130.424 85.9552C132.263 86.2902 133.527 87.9652 133.297 89.7519C133.412 90.1986 133.067 90.4219 132.722 90.3103Z" fill="#F8B64C"/>
<path d="M166.344 205.912C167.232 205.912 167.953 205.212 167.953 204.349C167.953 203.485 167.232 202.785 166.344 202.785C165.456 202.785 164.735 203.485 164.735 204.349C164.735 205.212 165.456 205.912 166.344 205.912Z" fill="#F8B64C"/>
<path d="M198.991 188.544C197.957 188.432 197.268 187.539 197.497 186.534C197.612 185.529 198.532 184.859 199.566 185.082C199.91 185.082 200.025 185.64 200.14 186.199L201.864 186.422L201.634 187.874L199.796 187.65C199.681 188.209 199.336 188.655 198.991 188.544Z" fill="#22A45D"/>
<path d="M90.1848 99.2951C91.454 99.2951 92.4829 98.2952 92.4829 97.0618C92.4829 95.8283 91.454 94.8284 90.1848 94.8284C88.9155 94.8284 87.8866 95.8283 87.8866 97.0618C87.8866 98.2952 88.9155 99.2951 90.1848 99.2951Z" fill="#F8B64C"/>
<path d="M233.166 150.513C232.822 150.513 232.592 150.848 232.707 151.183C232.937 152.188 232.132 153.193 231.098 153.417C230.753 153.417 230.524 153.752 230.638 154.087C230.638 154.422 230.983 154.645 231.328 154.533C233.052 154.31 234.201 152.747 233.971 151.072C233.856 150.737 233.511 150.513 233.166 150.513Z" fill="#F8B64C"/>
<path d="M53.1614 251.897C52.8167 251.897 52.5868 252.232 52.7018 252.567C52.9316 253.572 52.1272 254.577 51.093 254.8C50.7483 254.8 50.5185 255.135 50.6334 255.47C50.6334 255.805 50.9781 256.029 51.3229 255.917C53.0465 255.694 54.1956 254.13 53.9657 252.455C53.8508 252.009 53.5061 251.785 53.1614 251.897Z" fill="#F8B64C"/>
<path d="M62.5839 244.862C62.3541 245.085 61.8944 245.085 61.6646 244.75C60.8603 243.857 59.4814 243.745 58.5621 244.527C58.3323 244.75 57.8727 244.75 57.6428 244.415C57.413 244.192 57.413 243.745 57.7577 243.522C59.2515 242.293 61.3199 242.517 62.5839 243.857C62.8137 244.303 62.8137 244.638 62.5839 244.862Z" fill="#F8B64C"/>
<path d="M223.859 139.123C223.629 139.346 223.169 139.346 222.94 139.011C222.135 138.118 220.756 138.006 219.837 138.788C219.607 139.011 219.148 139.011 218.918 138.676C218.688 138.453 218.688 138.006 219.033 137.783C220.527 136.555 222.595 136.778 223.859 138.118C224.204 138.565 224.089 138.9 223.859 139.123Z" fill="#F8B64C"/>
</svg>
