<svg width="24" height="24" viewBox="0 0 24 24" fill="none" xmlns="http://www.w3.org/2000/svg">
<path d="M20.3741 9.42264L20.7116 7.56826L14.625 3.22501L7.86713 3.09076V3.22501L0.858752 21.0975C0.786593 21.2815 0.749701 21.4774 0.750002 21.675C0.750499 22.0929 0.916853 22.4935 1.21252 22.7888C1.50819 23.0841 1.90899 23.25 2.32688 23.25H3.49313L20.3741 9.42264Z" fill="#F4AC1C"/>
<path d="M8.25 19.1089L3.41813 22.9406C3.14686 23.1416 2.8182 23.25 2.48063 23.25H4.13063C5.09735 23.2503 6.03457 22.917 6.78413 22.3065L8.95238 20.5418L10.5 19.2821L12 18.0611L14.625 15.9236L21.2955 10.4948L20.3741 9.42263L17.6798 11.5706L16.5 12.5115L14.625 14.0063L8.25 19.1089Z" fill="#FFDA88"/>
<path d="M6.83625 22.0268C6.67385 22.0262 6.5156 21.9754 6.38317 21.8814C6.25074 21.7874 6.15061 21.6548 6.09649 21.5017C6.04237 21.3486 6.03691 21.1825 6.08086 21.0261C6.12482 20.8698 6.21603 20.7309 6.342 20.6284L9.72713 17.8973C9.80668 17.8259 9.89993 17.7714 10.0012 17.7372C10.1025 17.703 10.2097 17.6898 10.3162 17.6984C10.4227 17.707 10.5264 17.7371 10.6209 17.7871C10.7154 17.837 10.7988 17.9056 10.8659 17.9888C10.9331 18.072 10.9825 18.168 11.0114 18.2709C11.0402 18.3738 11.0478 18.4815 11.0337 18.5875C11.0195 18.6934 10.984 18.7954 10.9292 18.8872C10.8744 18.9789 10.8015 19.0586 10.7149 19.1213L7.32975 21.8524C7.19012 21.9654 7.01588 22.027 6.83625 22.0268Z" fill="#FFE9B8" fill-opacity="0.5"/>
<path d="M20.7056 9.954C17.622 4.641 10.4546 3.60488 8.42138 3.41513C8.24646 3.39901 8.07687 3.34636 7.92359 3.26058C7.7703 3.17479 7.63672 3.05779 7.5315 2.91713L7.40513 2.74875C7.22336 2.50623 7.13513 2.20631 7.15662 1.90399C7.17811 1.60168 7.30788 1.31725 7.52213 1.10288C7.75481 0.869165 8.07023 0.736583 8.4 0.733879C10.5113 0.720004 18.4658 1.1625 23.0385 8.2875C23.1777 8.50732 23.251 8.76235 23.25 9.0225V9.25988C23.2501 9.45862 23.2069 9.65499 23.1234 9.83533C23.0399 10.0157 22.9181 10.1757 22.7664 10.3042C22.6148 10.4326 22.437 10.5266 22.2454 10.5793C22.0538 10.6321 21.853 10.6426 21.657 10.6099C21.4599 10.5773 21.2725 10.5016 21.108 10.3883C20.9436 10.2749 20.8062 10.1266 20.7056 9.954Z" fill="#FFC239"/>
<path d="M21.1039 8.90288C20.9656 8.90291 20.8291 8.87237 20.704 8.81343C20.579 8.7545 20.4685 8.66864 20.3805 8.562C19.7284 7.77161 18.9949 7.05214 18.192 6.4155C18.0905 6.34094 18.0051 6.2467 17.9409 6.13841C17.8767 6.03012 17.8349 5.91 17.8181 5.78521C17.8013 5.66043 17.8098 5.53353 17.8431 5.4121C17.8764 5.29068 17.9338 5.1772 18.0119 5.07845C18.09 4.97969 18.1872 4.89769 18.2977 4.83732C18.4082 4.77696 18.5298 4.73947 18.6551 4.7271C18.7804 4.71473 18.9069 4.72772 19.027 4.76531C19.1472 4.8029 19.2586 4.86431 19.3545 4.94588C20.2607 5.6645 21.0887 6.47647 21.825 7.36838C21.9383 7.5055 22.0102 7.67202 22.0323 7.84848C22.0545 8.02494 22.026 8.20407 21.9502 8.36496C21.8744 8.52585 21.7544 8.66185 21.6042 8.7571C21.454 8.85235 21.2799 8.90291 21.102 8.90288H21.1039ZM16.3414 5.03325C16.1884 5.03319 16.0377 4.99559 15.9026 4.92375C13.9354 3.90461 11.7965 3.2586 9.594 3.01838C9.47165 3.00456 9.35322 2.96679 9.24547 2.9072C9.13772 2.84762 9.04276 2.76739 8.96601 2.67111C8.81101 2.47666 8.73961 2.2286 8.7675 1.9815C8.7954 1.7344 8.92032 1.50851 9.11477 1.35351C9.30922 1.19851 9.55728 1.1271 9.80438 1.155C12.2406 1.42219 14.6063 2.1384 16.7816 3.26738C16.9667 3.36543 17.1135 3.5226 17.1988 3.71383C17.2841 3.90507 17.303 4.11936 17.2523 4.32254C17.2017 4.52572 17.0844 4.70609 16.9193 4.8349C16.7542 4.96371 16.5508 5.03354 16.3414 5.03325Z" fill="#FFDA88"/>
<path d="M1.494 19.4783L2.45738 20.0899C2.76233 20.2831 3.11868 20.3794 3.47946 20.366C3.84023 20.3526 4.18847 20.2302 4.47825 20.0149L4.96575 19.6523L6.05325 18.8291L7.08225 18.0259C7.19533 17.95 7.32691 17.9064 7.46289 17.8997C7.59887 17.8929 7.73412 17.9234 7.85414 17.9876C7.97415 18.0519 8.07441 18.1477 8.14415 18.2646C8.21389 18.3815 8.25048 18.5152 8.25 18.6514V19.5C8.25 19.7984 8.36853 20.0845 8.57951 20.2955C8.79049 20.5065 9.07664 20.625 9.375 20.625C9.67337 20.625 9.95952 20.5065 10.1705 20.2955C10.3815 20.0845 10.5 19.7984 10.5 19.5V17.625C10.5 17.5086 10.5271 17.3937 10.5792 17.2896C10.6313 17.1855 10.7069 17.0949 10.8 17.025C10.9114 16.9414 11.0439 16.8905 11.1827 16.878C11.3214 16.8655 11.4608 16.8919 11.5854 16.9542C11.71 17.0165 11.8148 17.1122 11.888 17.2307C11.9612 17.3492 12 17.4857 12 17.625V20.8125C12 20.9849 12.034 21.1555 12.0999 21.3148C12.1659 21.474 12.2626 21.6187 12.3844 21.7406C12.5063 21.8625 12.651 21.9591 12.8102 22.0251C12.9695 22.0911 13.1401 22.125 13.3125 22.125C13.4849 22.125 13.6555 22.0911 13.8148 22.0251C13.974 21.9591 14.1187 21.8625 14.2406 21.7406C14.3625 21.6187 14.4591 21.474 14.5251 21.3148C14.5911 21.1555 14.625 20.9849 14.625 20.8125V12.6716C14.625 12.462 14.6723 12.2551 14.7631 12.0662C14.854 11.8773 14.9862 11.7112 15.15 11.5804L16.5 10.5L17.4458 9.69301L17.7083 9.45676C17.7998 9.37607 17.8735 9.27719 17.9247 9.16642C17.9759 9.05566 18.0035 8.93543 18.0056 8.81343C18.0078 8.69142 17.9845 8.5703 17.9372 8.4578C17.8899 8.3453 17.8198 8.24388 17.7311 8.16001C17.4809 7.92053 17.2141 7.69898 16.9328 7.49701C16.4926 7.1777 16.0209 6.90427 15.525 6.68101C14.228 6.09057 12.8921 5.5894 11.5268 5.18101C10.5218 4.89208 9.48366 4.73477 8.43825 4.71301L7.2945 4.68451L1.494 19.4783Z" fill="#FFC239"/>
<path d="M7.26563 6.06788C7.82813 5.046 9.53138 4.77113 10.3838 5.50538C11.4019 6.38288 11.046 8.56125 9.88238 9.05175C9.0225 9.414 7.8105 8.817 7.32675 7.87763C7.17919 7.60062 7.09696 7.29352 7.08637 6.97984C7.07577 6.66616 7.13709 6.35421 7.26563 6.06788ZM13.5 19.875C13.4005 19.875 13.3052 19.8355 13.2348 19.7652C13.1645 19.6948 13.125 19.5995 13.125 19.5V18C13.125 17.9005 13.1645 17.8052 13.2348 17.7348C13.3052 17.6645 13.4005 17.625 13.5 17.625C13.5995 17.625 13.6948 17.6645 13.7652 17.7348C13.8355 17.8052 13.875 17.9005 13.875 18V19.5C13.875 19.5995 13.8355 19.6948 13.7652 19.7652C13.6948 19.8355 13.5995 19.875 13.5 19.875Z" fill="#FFDA88" fill-opacity="0.376"/>
<path d="M12.9175 8.54336C13.5482 7.72204 13.6202 6.71889 13.0783 6.30277C12.5364 5.88665 11.5858 6.21513 10.9551 7.03645C10.3244 7.85778 10.2525 8.86092 10.7944 9.27705C11.3363 9.69317 12.2869 9.36469 12.9175 8.54336Z" fill="#F4AC1C"/>
<path d="M3.42 16.6609C3.37773 16.3397 3.4291 16.0131 3.56793 15.7204C3.70676 15.4277 3.92715 15.1814 4.20263 15.0109C5.44013 14.2643 7.72763 15.5861 7.69988 16.5881C7.67663 17.3936 6.14813 18.321 4.875 17.9944C4.7775 17.9685 3.59513 17.646 3.42 16.6609Z" fill="#FFDA88" fill-opacity="0.376"/>
<path d="M12.8353 14.6398C13.4659 13.8185 13.5379 12.8154 12.996 12.3992C12.4541 11.9831 11.5035 12.3116 10.8728 13.1329C10.2422 13.9543 10.1702 14.9574 10.7121 15.3735C11.254 15.7897 12.2046 15.4612 12.8353 14.6398Z" fill="#F4AC1C"/>
<path d="M7.20146 16.5146C7.83214 15.6932 7.9041 14.6901 7.36219 14.274C6.82028 13.8578 5.86971 14.1863 5.23903 15.0077C4.60835 15.829 4.53639 16.8321 5.0783 17.2482C5.62021 17.6644 6.57078 17.3359 7.20146 16.5146Z" fill="#F4AC1C"/>
<path d="M12.6917 8.31709C13.3224 7.49577 13.3943 6.49262 12.8524 6.0765C12.3105 5.66037 11.36 5.98885 10.7293 6.81018C10.0986 7.6315 10.0266 8.63465 10.5685 9.05077C11.1105 9.4669 12.061 9.13842 12.6917 8.31709Z" fill="#97262E"/>
<path d="M12.6094 14.4136C13.2401 13.5922 13.3121 12.5891 12.7702 12.173C12.2283 11.7569 11.2777 12.0853 10.647 12.9067C10.0163 13.728 9.94437 14.7311 10.4863 15.1473C11.0282 15.5634 11.9788 15.2349 12.6094 14.4136Z" fill="#97262E"/>
<path d="M6.97511 16.2887C7.60579 15.4674 7.67775 14.4643 7.13584 14.0481C6.59393 13.632 5.64336 13.9605 5.01268 14.7818C4.382 15.6032 4.31004 16.6063 4.85195 17.0224C5.39386 17.4385 6.34443 17.1101 6.97511 16.2887Z" fill="#97262E"/>
<path d="M7.18355 9.1076L6.25411 11.4314C6.1262 11.7512 6.28175 12.1141 6.60154 12.242L6.83622 12.3358C7.156 12.4638 7.51893 12.3082 7.64684 11.9884L8.57628 9.66465C8.70418 9.34486 8.54863 8.98193 8.22885 8.85403L7.99417 8.76016C7.67438 8.63226 7.31146 8.78781 7.18355 9.1076Z" fill="#6B4328"/>
<path d="M8.625 7.125C8.56111 7.12497 8.49828 7.10861 8.44248 7.07747C8.38668 7.04634 8.33976 7.00146 8.30618 6.94711C8.27259 6.89275 8.25346 6.83071 8.25058 6.76688C8.24771 6.70304 8.26119 6.63954 8.28975 6.58238L8.66475 5.83238C8.68677 5.7883 8.71724 5.749 8.75445 5.7167C8.79165 5.6844 8.83485 5.65975 8.88158 5.64415C8.92831 5.62855 8.97766 5.62231 9.0268 5.62578C9.07595 5.62925 9.12393 5.64237 9.168 5.66438C9.21208 5.68639 9.25138 5.71687 9.28368 5.75407C9.31598 5.79128 9.34063 5.83448 9.35623 5.88121C9.37183 5.92794 9.37807 5.97729 9.3746 6.02643C9.37113 6.07557 9.35801 6.12355 9.336 6.16763L8.961 6.91763C8.92982 6.98002 8.88186 7.03248 8.82251 7.06912C8.76315 7.10575 8.69475 7.12511 8.625 7.125Z" fill="#5D7751"/>
<path d="M15.9968 14.592C15.8416 14.5921 15.6902 14.5441 15.5635 14.4546C15.4367 14.3651 15.3409 14.2384 15.2891 14.0921C15.2374 13.9459 15.2323 13.7871 15.2745 13.6378C15.3168 13.4885 15.4043 13.356 15.525 13.2585L18.7538 10.6538C18.9089 10.5327 19.1055 10.4774 19.301 10.4999C19.4965 10.5224 19.6754 10.6209 19.799 10.7741C19.9225 10.9273 19.9809 11.123 19.9616 11.3188C19.9422 11.5147 19.8466 11.6951 19.6954 11.8211L16.467 14.4259C16.3339 14.5335 16.1679 14.5921 15.9968 14.592Z" fill="#FFE9B8" fill-opacity="0.5"/>
<path d="M12.681 12.1298C12.129 11.8084 11.2481 12.1354 10.65 12.9135C10.122 13.6005 9.99113 14.4105 10.278 14.901C10.83 15.2224 11.7109 14.8954 12.309 14.1173C12.837 13.4314 12.9679 12.621 12.681 12.1298ZM12.7594 6.02476C12.2074 5.70338 11.3265 6.03038 10.7284 6.80851C10.2004 7.49551 10.0691 8.30551 10.356 8.79601C10.908 9.11738 11.7889 8.79038 12.387 8.01226C12.915 7.32638 13.0459 6.51638 12.7594 6.02476ZM7.06725 14.0171C6.51713 13.6733 5.61975 13.9995 5.01338 14.7885C4.47788 15.4849 4.34925 16.3091 4.65188 16.7981C5.20238 17.142 6.09975 16.8158 6.70575 16.0271C7.24125 15.3304 7.36988 14.5065 7.06725 14.0171Z" fill="#C12B35"/>
<path d="M8.43338 12.3443C8.58338 11.7289 9.2115 9.85613 10.2431 9.94763C10.5475 10.009 10.824 10.1671 11.0311 10.3984C11.2383 10.6298 11.365 10.9219 11.3925 11.2313C11.4675 12.2535 10.1344 12.8269 9.78 12.9799C9.60638 13.0549 8.77163 13.4141 8.47163 13.0901C8.35088 12.9615 8.33438 12.7451 8.43338 12.3443Z" fill="#FFDA88" fill-opacity="0.376"/>
<path d="M10.2075 17.4581C10.2075 17.0211 9.85325 16.6669 9.41625 16.6669C8.97926 16.6669 8.625 17.0211 8.625 17.4581V19.0838C8.625 19.5207 8.97926 19.875 9.41625 19.875C9.85325 19.875 10.2075 19.5207 10.2075 19.0838V17.4581Z" fill="#FFDA88" fill-opacity="0.376"/>
<path d="M6.00333 15.6565C6.26534 15.3654 6.28344 14.9545 6.04377 14.7388C5.80409 14.5231 5.3974 14.5841 5.13539 14.8752C4.87338 15.1663 4.85528 15.5772 5.09496 15.7929C5.33463 16.0086 5.74133 15.9476 6.00333 15.6565Z" fill="#D33343"/>
<path d="M11.8262 13.7917C12.0882 13.5006 12.1063 13.0898 11.8666 12.8741C11.6269 12.6583 11.2203 12.7194 10.9582 13.0105C10.6962 13.3016 10.6781 13.7125 10.9178 13.9282C11.1575 14.1439 11.5642 14.0828 11.8262 13.7917Z" fill="#D33343"/>
<path d="M11.9102 7.51438C12.1723 7.22329 12.1904 6.81244 11.9507 6.59671C11.711 6.38098 11.3043 6.44207 11.0423 6.73316C10.7803 7.02425 10.7622 7.43511 11.0019 7.65084C11.2415 7.86657 11.6482 7.80547 11.9102 7.51438Z" fill="#D33343"/>
<path d="M8.08238 8.78813L7.998 8.75476C7.922 8.72427 7.84073 8.70908 7.75885 8.71003C7.67697 8.71099 7.59608 8.72809 7.52081 8.76034C7.44554 8.79259 7.37737 8.83937 7.3202 8.898C7.26303 8.95663 7.21798 9.02595 7.18763 9.102L6.258 11.427C6.21219 11.5416 6.20146 11.6672 6.22716 11.7879C6.25287 11.9087 6.31385 12.019 6.40238 12.105L6.48638 12.1388C6.63995 12.2001 6.8116 12.198 6.96362 12.1329C7.11564 12.0678 7.23559 11.945 7.29713 11.7915L8.22675 9.46651C8.2725 9.35183 8.2832 9.22617 8.2575 9.10541C8.2318 8.98466 8.17085 8.87424 8.08238 8.78813Z" fill="#7D5032"/>
<path d="M14.6089 10.1966C14.7836 9.0915 14.004 8.5275 14.2455 8.06925C14.5264 7.5375 16.1029 7.30575 16.6669 8.13862C17.1589 8.86537 16.5476 9.91312 15.9664 10.3609C15.5314 10.6957 14.8343 10.9091 14.6261 10.6807C14.5234 10.5679 14.5781 10.3897 14.6089 10.1966Z" fill="#FFDA88" fill-opacity="0.376"/>
<path d="M13.875 10.125C13.8008 10.125 13.7284 10.103 13.6667 10.0618C13.6051 10.0206 13.557 9.96201 13.5286 9.8935C13.5002 9.82498 13.4928 9.7496 13.5073 9.67686C13.5217 9.60413 13.5575 9.53732 13.6099 9.48488L14.3599 8.73488C14.4306 8.66657 14.5253 8.62877 14.6237 8.62962C14.722 8.63048 14.816 8.66992 14.8856 8.73944C14.9551 8.80897 14.9945 8.90303 14.9954 9.00135C14.9962 9.09967 14.9584 9.1944 14.8901 9.26513L14.1401 10.0151C14.0698 10.0855 13.9745 10.125 13.875 10.125Z" fill="#5D7751"/>
<path d="M14.3599 8.73487L13.6099 9.48487C13.5529 9.54259 13.5166 9.61743 13.5063 9.69786C13.4961 9.77829 13.5126 9.85986 13.5533 9.93C13.6228 9.97289 13.7049 9.9907 13.7859 9.98047C13.867 9.97024 13.9421 9.93258 13.9988 9.87375L14.7488 9.12375C14.8056 9.06589 14.8419 8.99097 14.8521 8.91049C14.8622 8.83001 14.8457 8.74842 14.805 8.67825C14.7349 8.63751 14.6533 8.62099 14.5729 8.63122C14.4924 8.64146 14.4176 8.67788 14.3599 8.73487ZM9.17513 5.67C9.17213 5.67 9.17063 5.66587 9.16763 5.66437C9.12356 5.64234 9.07558 5.6292 9.02643 5.62572C8.97728 5.62224 8.92793 5.62848 8.88119 5.64408C8.83445 5.65969 8.79125 5.68434 8.75405 5.71665C8.71685 5.74896 8.68638 5.78828 8.66438 5.83237L8.28938 6.58237C8.26236 6.63851 8.24994 6.70055 8.25329 6.76276C8.25663 6.82497 8.27562 6.88533 8.3085 6.93825C8.3115 6.93825 8.313 6.94237 8.31563 6.94387C8.35968 6.96592 8.40764 6.97907 8.45677 6.98258C8.5059 6.98609 8.55525 6.97988 8.60198 6.96431C8.64871 6.94875 8.69192 6.92413 8.72914 6.89186C8.76635 6.85959 8.79685 6.8203 8.81888 6.77625L9.19388 6.02625C9.22106 5.9701 9.23359 5.908 9.23031 5.84571C9.22703 5.78342 9.20805 5.72298 9.17513 5.67Z" fill="#6B8B5D"/>
</svg>
