<svg width="328" height="336" viewBox="0 0 328 336" fill="none" xmlns="http://www.w3.org/2000/svg">
<path fill-rule="evenodd" clip-rule="evenodd" d="M261.22 281.982C263.874 281.221 265.409 278.452 264.648 275.797C263.887 273.143 261.118 271.608 258.463 272.369C255.809 273.13 254.274 275.899 255.035 278.554C255.797 281.208 258.565 282.743 261.22 281.982Z" fill="#F8B64C"/>
<path fill-rule="evenodd" clip-rule="evenodd" d="M67.1864 233.964C69.8409 233.203 71.3757 230.434 70.6145 227.779C69.8534 225.125 67.0845 223.59 64.43 224.351C61.7756 225.112 60.2408 227.881 61.0019 230.536C61.7631 233.19 64.5319 234.725 67.1864 233.964Z" fill="#F8B64C"/>
<path fill-rule="evenodd" clip-rule="evenodd" d="M23.5499 136.205C26.2043 135.443 27.7391 132.675 26.978 130.02C26.2168 127.366 23.4479 125.831 20.7935 126.592C18.139 127.353 16.6042 130.122 17.3654 132.776C18.1265 135.431 20.8954 136.966 23.5499 136.205Z" fill="#F8B64C"/>
<path fill-rule="evenodd" clip-rule="evenodd" d="M214.234 21.1894C216.889 20.4282 218.423 17.6593 217.662 15.0049C216.901 12.3504 214.132 10.8156 211.478 11.5768C208.823 12.3379 207.289 15.1068 208.05 17.7613C208.811 20.4157 211.58 21.9505 214.234 21.1894Z" fill="#F8B64C"/>
<path fill-rule="evenodd" clip-rule="evenodd" d="M20.4195 94.4499L28.4593 98.9065L24.0028 106.946L15.9629 102.49L20.4195 94.4499Z" fill="#FFD841"/>
<path fill-rule="evenodd" clip-rule="evenodd" d="M251.391 21.9781L259.431 26.4347L254.974 34.4745L246.934 30.018L251.391 21.9781Z" fill="#FFD841"/>
<path fill-rule="evenodd" clip-rule="evenodd" d="M256.929 211.805L264.969 216.262L260.512 224.302L252.472 219.845L256.929 211.805Z" fill="#FFD841"/>
<path fill-rule="evenodd" clip-rule="evenodd" d="M88.56 248.641L96.5998 253.098L92.1433 261.137L84.1034 256.681L88.56 248.641Z" fill="#FFD841"/>
<path fill-rule="evenodd" clip-rule="evenodd" d="M120.803 165.937C120.11 166.337 119.818 167.43 120.218 168.123L124.918 176.263C125.518 177.303 125.052 178.495 124.186 178.995C123.32 179.495 121.954 179.129 121.454 178.263L116.754 170.123C116.08 169.357 115.261 169.137 114.395 169.637L114.221 169.737C113.529 170.137 113.236 171.23 113.636 171.923L118.336 180.063C118.936 181.103 118.47 182.295 117.604 182.795C116.738 183.295 115.372 182.929 114.872 182.063L110.172 173.923C109.772 173.23 108.679 172.937 107.986 173.337C107.293 173.737 107 174.83 107.4 175.523L112.2 183.837C114.1 187.127 117.979 189.045 121.623 188.558C123.684 194.527 131.166 214.687 138.17 216.417C139.536 216.783 142.654 214.983 143.02 213.617C145.023 206.687 131.305 190.127 127.166 185.358C129.51 182.618 129.889 178.474 127.989 175.183L122.989 166.523C122.489 165.657 121.496 165.537 120.803 165.937Z" fill="#DCDCDC"/>
<path fill-rule="evenodd" clip-rule="evenodd" d="M125.538 198.537C128.872 206.312 133.525 215.172 138.17 216.417C139.536 216.783 142.654 214.983 143.02 213.617C144.264 208.972 138.918 200.512 133.852 193.737L125.538 198.537H125.538Z" fill="#F8B64C"/>
<path fill-rule="evenodd" clip-rule="evenodd" d="M180.345 127.866C176.015 130.366 176.15 138.601 178.55 142.758L179.45 144.317C181.35 147.608 185.129 149.352 188.847 148.591C190.581 153.595 198.343 175.44 205.72 177.417C207.086 177.783 210.204 175.983 210.57 174.617C212.546 167.24 197.509 149.595 194.043 145.591C196.387 142.852 196.939 138.608 195.039 135.317L194.139 133.758C191.739 129.601 184.675 125.366 180.345 127.866Z" fill="#DCDCDC"/>
<path fill-rule="evenodd" clip-rule="evenodd" d="M193.088 159.537C196.422 167.312 201.075 176.172 205.72 177.417C207.086 177.783 210.204 175.983 210.57 174.617C211.814 169.972 206.468 161.512 201.402 154.737L193.088 159.537V159.537Z" fill="#F8B64C"/>
<path d="M174.67 196.036C188.062 188.304 192.65 171.18 184.918 157.788C177.186 144.395 160.062 139.807 146.67 147.539C133.278 155.271 128.689 172.395 136.421 185.788C144.153 199.18 161.278 203.768 174.67 196.036Z" fill="#FFD600"/>
<path d="M171.17 189.974C181.214 184.175 184.655 171.332 178.856 161.288C173.057 151.244 160.214 147.802 150.17 153.601C140.126 159.4 136.684 172.244 142.483 182.288C148.282 192.332 161.126 195.773 171.17 189.974Z" fill="white"/>
<path d="M207.345 174.631C208.206 174.134 208.187 172.49 207.304 170.96C206.42 169.429 205.006 168.591 204.145 169.089C203.284 169.586 203.302 171.229 204.186 172.76C205.07 174.29 206.484 175.128 207.345 174.631Z" fill="white"/>
<path d="M139.795 213.631C140.656 213.134 140.637 211.49 139.754 209.96C138.87 208.429 137.456 207.591 136.595 208.089C135.734 208.586 135.752 210.229 136.636 211.76C137.52 213.29 138.934 214.128 139.795 213.631Z" fill="white"/>
<path fill-rule="evenodd" clip-rule="evenodd" d="M144.741 261.018C207.195 261.018 257.824 209.492 257.824 145.931C257.824 82.3707 207.195 30.8448 144.741 30.8448C82.2864 30.8448 31.6572 82.3707 31.6572 145.931C31.6572 209.492 82.2864 261.018 144.741 261.018Z" fill="#F8B64C"/>
<mask id="mask0_0_701" style="mask-type:luminance" maskUnits="userSpaceOnUse" x="31" y="30" width="227" height="232">
<path fill-rule="evenodd" clip-rule="evenodd" d="M144.741 261.018C207.195 261.018 257.824 209.492 257.824 145.931C257.824 82.3707 207.195 30.8448 144.741 30.8448C82.2864 30.8448 31.6572 82.3707 31.6572 145.931C31.6572 209.492 82.2864 261.018 144.741 261.018Z" fill="white"/>
</mask>
<g mask="url(#mask0_0_701)">
<path fill-rule="evenodd" clip-rule="evenodd" d="M181.326 4.73426C282.514 61.0921 204.264 97.8418 266.935 154.099C302.253 185.802 250.061 246.741 188.542 245.566C166.628 245.147 144.074 203.439 123.112 196.298C98.498 187.913 76.2964 209.809 63.5977 180.415C9.72544 55.7139 117.621 98.1348 123.148 42.819C128.674 -12.4967 167.126 -2.63028 181.326 4.73426Z" fill="#FBFBFB"/>
<path fill-rule="evenodd" clip-rule="evenodd" d="M237.07 216.885C239.078 216.299 240.239 214.167 239.663 212.124C239.088 210.08 236.993 208.899 234.985 209.485C232.977 210.071 231.816 212.202 232.392 214.246C232.968 216.289 235.062 217.47 237.07 216.885Z" fill="#22A45D"/>
<path fill-rule="evenodd" clip-rule="evenodd" d="M88.7981 180.107C90.8059 179.522 91.9669 177.39 91.3911 175.347C90.8154 173.303 88.721 172.122 86.7131 172.708C84.7053 173.294 83.5443 175.425 84.1201 177.468C84.6958 179.512 86.7902 180.693 88.7981 180.107Z" fill="#22A45D"/>
<path fill-rule="evenodd" clip-rule="evenodd" d="M55.791 104.852C57.7988 104.266 58.9598 102.134 58.3841 100.091C57.8083 98.0472 55.7139 96.8657 53.706 97.4517C51.6982 98.0376 50.5372 100.169 51.113 102.213C51.6887 104.256 53.7831 105.437 55.791 104.852Z" fill="#22A45D"/>
<path fill-rule="evenodd" clip-rule="evenodd" d="M232.321 163.05L238.403 166.48L235.032 172.669L228.95 169.239L232.321 163.05Z" fill="#FFD841"/>
<path fill-rule="evenodd" clip-rule="evenodd" d="M104.965 191.406L111.047 194.837L107.676 201.026L101.594 197.595L104.965 191.406Z" fill="#FFD841"/>
<path fill-rule="evenodd" clip-rule="evenodd" d="M53.423 72.7085L59.5045 76.1392L56.1335 82.3284L50.0521 78.8977L53.423 72.7085Z" fill="#FFD841"/>
<path fill-rule="evenodd" clip-rule="evenodd" d="M129.354 127.74C128.83 128.048 128.609 128.889 128.911 129.422L132.466 135.689C132.92 136.489 132.568 137.407 131.913 137.792C131.258 138.177 130.224 137.895 129.846 137.229L126.291 130.962C125.782 130.372 125.162 130.203 124.507 130.588L124.376 130.665C123.852 130.973 123.63 131.814 123.933 132.348L127.488 138.614C127.942 139.414 127.589 140.333 126.934 140.718C126.279 141.103 125.246 140.821 124.868 140.154L121.312 133.887C121.01 133.354 120.183 133.129 119.659 133.436C119.135 133.744 118.914 134.586 119.216 135.119L122.847 141.519C124.284 144.052 127.218 145.529 129.975 145.153C131.533 149.749 137.193 165.268 142.491 166.6C143.524 166.881 145.882 165.496 146.159 164.444C147.674 159.109 137.298 146.361 134.167 142.69C135.941 140.581 136.227 137.391 134.79 134.857L131.008 128.191C130.629 127.524 129.878 127.432 129.354 127.74Z" fill="#DCDCDC"/>
<path fill-rule="evenodd" clip-rule="evenodd" d="M132.936 152.836C135.457 158.821 138.978 165.642 142.491 166.6C143.524 166.881 145.882 165.496 146.159 164.444C147.1 160.869 143.056 154.356 139.224 149.141L132.936 152.836V152.836Z" fill="#22A45D"/>
<path fill-rule="evenodd" clip-rule="evenodd" d="M174.392 98.4323C171.117 100.357 171.219 106.696 173.035 109.897L173.716 111.097C175.153 113.63 178.011 114.973 180.823 114.387C182.135 118.239 188.006 135.056 193.586 136.577C194.619 136.859 196.978 135.473 197.254 134.422C198.75 128.743 187.375 115.16 184.753 112.078C186.527 109.969 186.944 106.702 185.507 104.168L184.826 102.968C183.011 99.7682 177.667 96.5078 174.392 98.4323Z" fill="#DCDCDC"/>
<path fill-rule="evenodd" clip-rule="evenodd" d="M184.031 122.813C186.553 128.798 190.073 135.619 193.586 136.577C194.619 136.859 196.978 135.473 197.255 134.422C198.196 130.846 194.152 124.333 190.32 119.118L184.031 122.813V122.813Z" fill="#22A45D"/>
<path d="M170.1 150.911C180.23 144.958 183.7 131.776 177.852 121.466C172.003 111.157 159.05 107.625 148.92 113.577C138.79 119.529 135.319 132.712 141.168 143.021C147.016 153.331 159.97 156.863 170.1 150.911Z" fill="#FFD600"/>
<path d="M167.452 146.244C175.05 141.78 177.653 131.893 173.266 124.161C168.88 116.429 159.165 113.779 151.568 118.244C143.97 122.708 141.367 132.595 145.753 140.327C150.14 148.059 159.855 150.708 167.452 146.244Z" fill="white"/>
<path d="M194.815 134.433C195.466 134.05 195.452 132.785 194.784 131.606C194.116 130.428 193.046 129.783 192.395 130.166C191.743 130.549 191.757 131.814 192.426 132.992C193.094 134.17 194.164 134.815 194.815 134.433Z" fill="white"/>
<path d="M143.72 164.455C144.371 164.073 144.357 162.807 143.689 161.629C143.02 160.451 141.95 159.806 141.299 160.188C140.648 160.571 140.662 161.836 141.33 163.015C141.999 164.193 143.069 164.838 143.72 164.455Z" fill="white"/>
</g>
</svg>
